HIERARCHY
ROOT hip
{
  OFFSET 0 0 0
  CHANNELS 6 Xposition Yposition Zposition Zrotation Yrotation Xrotation
  JOINT abdomen
  {
    OFFSET 0 20.6881 -0.73152
    CHANNELS 3 Zrotation Xrotation Yrotation
    JOINT chest
    {
      OFFSET 0 11.7043 -0.48768
      CHANNELS 3 Zrotation Xrotation Yrotation
      JOINT neck
      {
        OFFSET 0 22.1894 -2.19456
        CHANNELS 3 Zrotation Xrotation Yrotation
        JOINT head
        {
          OFFSET -0.24384 7.07133 1.2192
          CHANNELS 3 Zrotation Xrotation Yrotation
          JOINT leftEye
          {
            OFFSET 4.14528 8.04674 8.04672
            CHANNELS 3 Zrotation Xrotation Yrotation
            End Site
            {
              OFFSET 1 0 0
            }
          }
          JOINT rightEye
          {
            OFFSET -3.6576 8.04674 8.04672
            CHANNELS 3 Zrotation Xrotation Yrotation
            End Site
            {
              OFFSET 1 0 0
            }
          }
        }
      }
      JOINT rCollar
      {
        OFFSET -2.68224 19.2634 -4.8768
        CHANNELS 3 Zrotation Xrotation Yrotation
        JOINT rShldr
        {
          OFFSET -8.77824 -1.95073 1.46304
          CHANNELS 3 Zrotation Xrotation Yrotation
          JOINT rForeArm
          {
            OFFSET -28.1742 -1.7115 0.48768
            CHANNELS 3 Zrotation Xrotation Yrotation
            JOINT rHand
            {
              OFFSET -22.5879 0.773209 7.07136
              CHANNELS 3 Zrotation Xrotation Yrotation
              JOINT rThumb1
              {
                OFFSET -1.2192 -0.487915 3.41376
                CHANNELS 3 Zrotation Xrotation Yrotation
                JOINT rThumb2
                {
                  OFFSET -3.37035 -0.52449 3.41376
                  CHANNELS 3 Zrotation Xrotation Yrotation
                  End Site
                  {
                    OFFSET -1.78271 -1.18214 1.43049
                  }
                }
              }
              JOINT rIndex1
              {
                OFFSET -7.75947 0.938293 5.60832
                CHANNELS 3 Zrotation Xrotation Yrotation
                JOINT rIndex2
                {
                  OFFSET -2.54057 -0.884171 1.56538
                  CHANNELS 3 Zrotation Xrotation Yrotation
                  End Site
                  {
                    OFFSET -1.62519 -0.234802 1.16502
                  }
                }
              }
              JOINT rMid1
              {
                OFFSET -8.24714 1.18213 3.41376
                CHANNELS 3 Zrotation Xrotation Yrotation
                JOINT rMid2
                {
                  OFFSET -3.10165 -0.590103 1.0647
                  CHANNELS 3 Zrotation Xrotation Yrotation
                  End Site
                  {
                    OFFSET -2.48547 -0.328903 0.83742
                  }
                }
              }
              JOINT rRing1
              {
                OFFSET -8.82822 0.546677 1.51678
                CHANNELS 3 Zrotation Xrotation Yrotation
                JOINT rRing2
                {
                  OFFSET -2.60934 -0.819778 -0.0198488
                  CHANNELS 3 Zrotation Xrotation Yrotation
                  End Site
                  {
                    OFFSET -2.33842 -0.294052 0.168128
                  }
                }
              }
              JOINT rPinky1
              {
                OFFSET -8.27202 -0.0477905 -0.4584
                CHANNELS 3 Zrotation Xrotation Yrotation
                JOINT rPinky2
                {
                  OFFSET -1.82734 -0.647385 -0.700984
                  CHANNELS 3 Zrotation Xrotation Yrotation
                  End Site
                  {
                    OFFSET -1.69225 -0.51767 -0.607171
                  }
                }
              }
            }
          }
        }
      }
      JOINT lCollar
      {
        OFFSET 2.68224 19.2634 -4.8768
        CHANNELS 3 Zrotation Xrotation Yrotation
        JOINT lShldr
        {
          OFFSET 8.77824 -1.95073 1.46304
          CHANNELS 3 Zrotation Xrotation Yrotation
          JOINT lForeArm
          {
            OFFSET 28.1742 -1.7115 0.48768
            CHANNELS 3 Zrotation Xrotation Yrotation
            JOINT lHand
            {
              OFFSET 22.5879 0.773209 7.07136
              CHANNELS 3 Zrotation Xrotation Yrotation
              JOINT lThumb1
              {
                OFFSET 1.2192 -0.487915 3.41376
                CHANNELS 3 Zrotation Xrotation Yrotation
                JOINT lThumb2
                {
                  OFFSET 3.37035 -0.52449 3.41376
                  CHANNELS 3 Zrotation Xrotation Yrotation
                  End Site
                  {
                    OFFSET 1.78271 -1.18214 1.43049
                  }
                }
              }
              JOINT lIndex1
              {
                OFFSET 7.75947 0.938293 5.60832
                CHANNELS 3 Zrotation Xrotation Yrotation
                JOINT lIndex2
                {
                  OFFSET 2.54057 -0.884171 1.56538
                  CHANNELS 3 Zrotation Xrotation Yrotation
                  End Site
                  {
                    OFFSET 1.62519 -0.234802 1.16502
                  }
                }
              }
              JOINT lMid1
              {
                OFFSET 8.24714 1.18213 3.41376
                CHANNELS 3 Zrotation Xrotation Yrotation
                JOINT lMid2
                {
                  OFFSET 3.10165 -0.590103 1.0647
                  CHANNELS 3 Zrotation Xrotation Yrotation
                  End Site
                  {
                    OFFSET 2.48547 -0.328903 0.83742
                  }
                }
              }
              JOINT lRing1
              {
                OFFSET 8.82822 0.546677 1.51678
                CHANNELS 3 Zrotation Xrotation Yrotation
                JOINT lRing2
                {
                  OFFSET 2.60934 -0.819778 -0.0198488
                  CHANNELS 3 Zrotation Xrotation Yrotation
                  End Site
                  {
                    OFFSET 2.33842 -0.294052 0.168128
                  }
                }
              }
              JOINT lPinky1
              {
                OFFSET 8.27202 -0.0477905 -0.4584
                CHANNELS 3 Zrotation Xrotation Yrotation
                JOINT lPinky2
                {
                  OFFSET 1.82734 -0.647385 -0.700984
                  CHANNELS 3 Zrotation Xrotation Yrotation
                  End Site
                  {
                    OFFSET 1.69225 -0.51767 -0.607171
                  }
                }
              }
            }
          }
        }
      }
    }
  }
  JOINT rButtock
  {
    OFFSET -8.77824 4.35084 1.2192
    CHANNELS 3 Zrotation Xrotation Yrotation
    JOINT rThigh
    {
      OFFSET 0 -1.70687 -2.19456
      CHANNELS 3 Zrotation Xrotation Yrotation
      JOINT rShin
      {
        OFFSET 0 -36.8199 0.73152
        CHANNELS 3 Zrotation Xrotation Yrotation
        JOINT rFoot
        {
          OFFSET 0.73152 -45.1104 -5.12064
          CHANNELS 3 Zrotation Xrotation Yrotation
          End Site
          {
            OFFSET -1.1221 -3.69964 12.103
          }
        }
      }
    }
  }
  JOINT lButtock
  {
    OFFSET 8.77824 4.35084 1.2192
    CHANNELS 3 Zrotation Xrotation Yrotation
    JOINT lThigh
    {
      OFFSET 0 -1.70687 -2.19456
      CHANNELS 3 Zrotation Xrotation Yrotation
      JOINT lShin
      {
        OFFSET 0 -36.8199 0.73152
        CHANNELS 3 Zrotation Xrotation Yrotation
        JOINT lFoot
        {
          OFFSET -0.73152 -45.1104 -5.12064
          CHANNELS 3 Zrotation Xrotation Yrotation
          End Site
          {
            OFFSET 1.1221 -3.69964 12.103
          }
        }
      }
    }
  }
}
MOTION
Frames:	4
Frame Time:	0.03333
0.12453296221792698 49.77926015853882 0.4692268557846546 -2.2829253673553467 2.475806474685669 3.953763723373413 -1.731844186782837 12.651480674743652 3.4909627437591553 2.2472193241119385 -9.085479736328125 0.9018746614456177 -4.216058254241943 13.014827728271484 -2.8805196285247803 7.48751163482666 -20.03187370300293 -4.221087455749512 0.04824049770832062 -0.010309910401701927 0.12839803099632263 0.06302542984485626 0.12484408169984818 -0.08398963510990143 -0.0644589364528656 -0.12762415409088135 0.02149726264178753 31.381954193115234 23.96803855895996 15.226075172424316 -25.95543098449707 -19.98141098022461 44.3868408203125 0.09373709559440613 -7.775583267211914 -1.7888318300247192 -0.021708521991968155 0.3231952488422394 -0.12966088950634003 -0.08256399631500244 -0.06498201936483383 0.03930778428912163 -0.12076812982559204 0.07113206386566162 0.011857368983328342 6.954734802246094 5.148090839385986 0.37048012018203735 -0.040901098400354385 0.10779131948947906 0.07021020352840424 3.0072054862976074 0.7448564171791077 0.10653560608625412 -0.0700930655002594 -0.22546495497226715 0.04389782249927521 9.245133399963379 0.7002404928207397 0.11381359398365021 -0.13397982716560364 -0.1003531739115715 0.048310428857803345 2.0400261878967285 -0.6966070532798767 -0.26731061935424805 -0.11179886758327484 0.12343110144138336 0.37624648213386536 -36.97556686401367 24.515676498413086 -21.84093475341797 24.54863929748535 -18.711040496826172 -42.96328353881836 0.008427131921052933 -9.860042572021484 2.2360613346099854 -0.06554078310728073 -0.04584120213985443 -0.14622889459133148 -0.12836554646492004 -0.11305230855941772 -0.05902842432260513 -0.07787572592496872 -0.03185335174202919 -0.04768231138586998 -7.18370246887207 4.940972328186035 -0.438516229391098 0.20254115760326385 0.05100294202566147 0.01189311221241951 -2.8008949756622314 0.7829992771148682 -0.04463570564985275 -0.04168005660176277 0.09006483107805252 0.039020128548145294 -8.812604904174805 0.6585832238197327 0.036451660096645355 0.21319936215877533 0.019356926903128624 0.07748842239379883 -2.317232608795166 -0.5393547415733337 0.05502660572528839 -0.024410706013441086 0.05029416084289551 -0.04726921766996384 -16.751686096191406 -28.431007385253906 -14.505693435668945 -0.7025380730628967 44.84831237792969 1.4197429418563843 -3.2616488933563232 -8.89224910736084 -8.295866012573242 -0.14430008828639984 0.19291305541992188 -0.08762235939502716 19.774494171142578 -27.529260635375977 14.865665435791016 0.3029118776321411 46.60856628417969 -1.7727594375610352 3.7307822704315186 -9.583907127380371 10.175472259521484
-0.05968911573290825 70.14591693878174 0.2931671217083931 -4.5238142013549805 1.796613097190857 5.913893222808838 -2.695058822631836 15.495376586914062 3.9296040534973145 3.1865038871765137 -10.426568031311035 1.4381496906280518 -6.0395097732543945 16.821548461914062 -4.446484565734863 9.720084190368652 -26.307897567749023 -6.292431354522705 0.022820796817541122 -0.004387709312140942 0.0741882398724556 0.051713574677705765 -0.2221396565437317 0.08825153112411499 -0.03487393260002136 0.10105353593826294 0.01581636443734169 50.40229034423828 39.3475456237793 15.286787033081055 -29.150203704833984 -30.777236938476562 65.69602966308594 -0.22072044014930725 -9.890837669372559 -1.548423171043396 0.16690242290496826 -0.2991044223308563 0.09317266196012497 0.15658678114414215 0.160715252161026 0.12110838294029236 0.23174633085727692 -0.23180708289146423 -0.023680731654167175 8.533656120300293 5.707912921905518 0.4901268184185028 -0.04778226837515831 0.06278780102729797 -0.009220427833497524 2.9729726314544678 1.3097096681594849 0.16471844911575317 -0.012696223333477974 0.1987178772687912 0.11979373544454575 11.402717590332031 0.7753817439079285 -0.07010843604803085 0.11563486605882645 0.038173381239175797 0.003892227541655302 2.55509090423584 -0.6533297896385193 -0.22248339653015137 0.06385346502065659 -0.007159009110182524 -0.19344401359558105 -57.18952178955078 40.77206039428711 -26.953125 28.674448013305664 -28.155717849731445 -62.22966003417969 0.33294379711151123 -10.157354354858398 1.5816634893417358 0.09919846802949905 -0.04551222175359726 0.13786111772060394 0.11043523252010345 0.032241638749837875 -0.08888064324855804 0.04496840387582779 0.03334362432360649 0.15366628766059875 -8.385870933532715 5.990595817565918 -0.331664502620697 -0.30423253774642944 -0.07179316133260727 -0.05098610371351242 -3.120986223220825 1.0497797727584839 0.028785286471247673 0.09329178929328918 -0.07048410177230835 -0.37829074263572693 -11.60681438446045 0.7691903114318848 -0.07020888477563858 -0.11223006248474121 0.06466063112020493 -0.004418131895363331 -2.1285486221313477 -0.8461446762084961 0.2559499740600586 0.07581230252981186 0.008398751728236675 0.18859024345874786 -25.76310920715332 -39.722206115722656 -20.90327262878418 -1.3287885189056396 67.49514770507812 2.9005353450775146 -4.154679298400879 -11.833844184875488 -11.243277549743652 0.029311582446098328 -0.10622595250606537 0.1769580990076065 32.41579818725586 -40.647499084472656 24.342021942138672 2.437389850616455 69.75239562988281 -3.487644672393799 4.4540181159973145 -11.509066581726074 14.91808032989502
-0.5532185081392527 60.5052649974823 1.4497690834105015 0.044523611664772034 -42.45563888549805 2.1368587017059326 -11.021400451660156 13.872102737426758 2.088691473007202 4.2536420822143555 -8.903898239135742 0.6546518802642822 -8.929590225219727 16.178163528442383 -11.4691801071167 11.432682991027832 -24.54535675048828 -19.665679931640625 -0.12987276911735535 0.24608898162841797 0.08811884373426437 -0.18761572241783142 -0.0603201799094677 0.24418886005878448 0.17499330639839172 -0.20379233360290527 0.2576669752597809 31.099365234375 6.830240249633789 40.61017990112305 -19.747634887695312 -13.008179664611816 42.185184478759766 -0.5910631418228149 16.349123001098633 2.9289209842681885 -0.35253843665122986 -0.26486852765083313 0.022607406601309776 -0.18882663547992706 0.4485936164855957 0.39255577325820923 -0.18724963068962097 0.02576935477554798 -0.20472612977027893 7.1810784339904785 4.976503849029541 0.9144400954246521 -0.44085296988487244 -0.2923215329647064 0.2862159311771393 2.569303512573242 1.1670833826065063 -0.057665664702653885 -0.07128097862005234 0.21025237441062927 0.06170618161559105 8.986230850219727 0.31727853417396545 0.2570192813873291 -0.15166091918945312 -0.32818928360939026 -0.28093793988227844 2.4980812072753906 -0.7655820846557617 -0.1418609619140625 0.12787629663944244 -0.40504932403564453 0.4950782358646393 -77.31688690185547 58.162723541259766 8.777484893798828 27.536828994750977 -32.5881233215332 -73.87761688232422 3.000498056411743 -43.10007095336914 7.442972660064697 -0.16991667449474335 -0.3393847346305847 -0.038709960877895355 0.24836775660514832 0.24295982718467712 0.1511068344116211 -0.0045024557039141655 0.019736822694540024 -0.12215247005224228 -7.173985481262207 5.391233444213867 -0.6146424412727356 0.25001880526542664 -0.0008668718510307372 0.22851575911045074 -2.8296117782592773 1.25164794921875 0.30761775374412537 -0.35780006647109985 0.19834907352924347 0.5171543955802917 -9.425331115722656 0.7623541951179504 -0.1280125081539154 0.47534677386283875 -0.16125157475471497 -0.48399117588996887 -2.072780132293701 -0.7732441425323486 0.27384528517723083 -0.18331098556518555 -0.08398780226707458 0.1804417222738266 -45.47353744506836 -59.26425552368164 -38.95165252685547 -1.0728408098220825 73.15233612060547 1.781538963317871 -0.136415496468544 -0.4412483870983124 3.0732011795043945 0.129880890250206 0.30758506059646606 0.7459465861320496 7.557435512542725 -11.283595085144043 3.3066837787628174 0.2382340282201767 47.0325927734375 -2.6591012477874756 9.143835067749023 -14.954172134399414 26.79149055480957
-2.425238722935319 63.55007886886597 1.6620611771941185 177.9698486328125 -53.85395050048828 -179.761474609375 -15.976252555847168 13.582514762878418 4.390583515167236 4.707718849182129 -10.781696319580078 2.026211738586426 -8.753430366516113 15.742608070373535 -15.288406372070312 10.578676223754883 -25.380403518676758 -26.952850341796875 0.5973009467124939 0.3998631238937378 0.6432141661643982 0.25459325313568115 0.4971759021282196 0.5472251772880554 0.12853866815567017 -0.20568153262138367 1.3101966381072998 27.806509017944336 -18.10455322265625 56.92299270629883 -10.245532035827637 -4.93432092666626 18.80423355102539 -2.109306812286377 33.215206146240234 5.258415699005127 -0.37578529119491577 -0.41878291964530945 0.3055398464202881 -0.7686841487884521 0.43332719802856445 0.7804034352302551 0.061692193150520325 -0.17209821939468384 -0.4347224831581116 6.740264415740967 5.13037633895874 1.8830626010894775 -0.8509548902511597 -0.8626672029495239 0.4231548011302948 3.075385570526123 1.8885478973388672 -0.5987803339958191 -0.22025513648986816 0.4768330752849579 0.2915439307689667 10.313281059265137 -0.1507088989019394 -0.09546676278114319 -0.06344453245401382 -0.6849618554115295 -0.1781882792711258 1.2429680824279785 -0.749488890171051 -0.2010185569524765 0.4897076189517975 0.040082357823848724 0.009314230643212795 -113.15323638916016 53.79839324951172 51.01835250854492 28.276586532592773 -38.265403747558594 -82.21658325195312 9.884673118591309 -62.95204544067383 16.048839569091797 -0.5630491971969604 -0.5535831451416016 -0.39589592814445496 -0.9159184098243713 -0.7243474721908569 -0.5314041376113892 -0.44995591044425964 -0.21499547362327576 -0.41050103306770325 -7.125311851501465 4.5243377685546875 0.20267121493816376 0.6442946195602417 -0.14856144785881042 -0.11084624379873276 -3.6572322845458984 1.3587112426757812 -0.5423640012741089 0.8484725952148438 0.9250534772872925 0.05257674679160118 -10.515548706054688 0.010972491465508938 1.217310905456543 0.08995134383440018 0.3181571960449219 -0.2916714549064636 -2.162437677383423 -0.5636812448501587 -0.27325665950775146 0.07571126520633698 0.5874422192573547 0.01751544512808323 -77.77674865722656 -63.76739501953125 -72.20359802246094 2.0806329250335693 76.47025299072266 -1.5654726028442383 0.3815370202064514 5.3078107833862305 8.788582801818848 0.13037285208702087 0.08377110213041306 0.3383110761642456 -0.594524085521698 15.032875061035156 0.005467938259243965 -1.4834142923355103 31.126192092895508 -2.5616326332092285 13.169281005859375 -16.529245376586914 37.474273681640625
